<svg id="Camada_1" data-name="Camada 1" xmlns="http://www.w3.org/2000/svg" viewBox="0 0 161.4 30.49"><defs><style>.cls-1{fill:#fff;}.cls-2{fill:#0bf;fill-rule:evenodd;}</style></defs><path class="cls-1" d="M45.37,8.66c-3.64,0-6,1.82-6,4.65,0,2.38,1.45,3.68,4.1,4.27l3.24.67c1.08.22,1.5.64,1.5,1.41,0,1-.92,1.64-2.38,1.64a2.89,2.89,0,0,1-3.11-2.21l-3.78.71c.44,2.72,3.1,4.4,6.69,4.4s6.3-1.83,6.3-4.78c0-2.26-1.45-3.7-4.19-4.3l-3.22-.69c-.93-.2-1.32-.63-1.32-1.35,0-.93.89-1.61,2.17-1.61a2.72,2.72,0,0,1,2.78,2.09l3.57-.7c-.59-2.63-3-4.2-6.3-4.2Z" transform="translate(-4.05 -1.3)"/><path class="cls-1" d="M73.19,16.79a4.27,4.27,0,0,0-4.36-4.47,5,5,0,0,0-4,1.88l-.07.09-.07-.1a4.24,4.24,0,0,0-3.72-1.87,4.37,4.37,0,0,0-3.36,1.34l-.15.17V12.66H53.88v11.1h3.53V18.32c0-1.87.86-2.94,2.3-2.94a2,2,0,0,1,2.06,2.18v6.2H65.3V18.32c0-1.87.88-2.94,2.35-2.94a2,2,0,0,1,2,2.18v6.2h3.51v-7Z" transform="translate(-4.05 -1.3)"/><path class="cls-1" d="M83.82,12.66h3.53v11.1H83.82v-1l-.15.13a5.21,5.21,0,0,1-3.55,1.21,5.6,5.6,0,0,1-5.58-5.88,5.62,5.62,0,0,1,5.58-5.89,5.26,5.26,0,0,1,3.55,1.21l.15.13v-1Zm-2.77,8.5a2.82,2.82,0,0,0,2.8-3,3,3,0,0,0-2.93-3,2.84,2.84,0,0,0-2.89,3,2.92,2.92,0,0,0,3,3Z" transform="translate(-4.05 -1.3)"/><path class="cls-1" d="M98.07,12.51h-.58a4.38,4.38,0,0,0-3.93,2.27l-.17.26V12.67H89.87v11.1h3.52V20.33c0-2.89,1.39-4.31,4.1-4.31h.58V12.51Z" transform="translate(-4.05 -1.3)"/><path class="cls-1" d="M106.25,20.67a3.84,3.84,0,0,1-1.55.38c-1.08,0-1.64-.57-1.64-1.73v-4h3.19V12.65h-3.19V9.32H99.53V19.68c0,2.86,1.64,4.4,4.54,4.4a6,6,0,0,0,2.18-.39v-3Z" transform="translate(-4.05 -1.3)"/><path class="cls-1" d="M116.83,23.86h-8V9h7.94c2.8,0,4.61,1.59,4.61,4A2.94,2.94,0,0,1,119,16.09h-.08v.25H119a3.12,3.12,0,0,1,2.9,3.37c0,2.55-1.82,4.13-5,4.13Zm-4.48-12v3.41h3.42a1.77,1.77,0,0,0,2-1.77,1.67,1.67,0,0,0-1.82-1.64Zm0,9.14H116c1.25,0,2-.66,2-1.77a1.71,1.71,0,0,0-1.92-1.7h-3.72V21Z" transform="translate(-4.05 -1.3)"/><path class="cls-1" d="M132.47,12.66H136v11.1h-3.53v-1l-.15.13a5.2,5.2,0,0,1-3.55,1.21,5.6,5.6,0,0,1-5.58-5.88,5.62,5.62,0,0,1,5.58-5.89,5.25,5.25,0,0,1,3.55,1.21l.15.13v-1Zm-2.9,8.5a3,3,0,0,0,0-6,2.84,2.84,0,0,0-2.89,3,2.83,2.83,0,0,0,2.89,3Z" transform="translate(-4.05 -1.3)"/><path class="cls-1" d="M150.12,16.93a4.26,4.26,0,0,0-4.42-4.61,4.77,4.77,0,0,0-3.5,1.39l-.15.15v-1.2h-3.53v11.1h3.53V18.61c0-2.12.9-3.23,2.49-3.23a2.1,2.1,0,0,1,2.08,2.31v6.07h3.5V16.93Z" transform="translate(-4.05 -1.3)"/><polygon class="cls-1" points="155.86 16.53 160.87 11.25 156.64 11.25 152.99 15.07 152.93 15.09 152.33 15.09 152.33 6.36 148.8 6.36 148.8 22.35 152.33 22.35 152.33 18.29 153.09 18.29 153.15 18.32 156.9 22.35 161.4 22.35 155.86 16.53 155.86 16.53"/><path class="cls-2" d="M20.15,5.72l4.36,0A2.3,2.3,0,0,1,27,8a2.48,2.48,0,0,1-2.71,2.53l-4.55,0h-.13l-2,3.84L16,17.68l-3.8-.8c-1.4-.28-1.8-.94-1.81-1.85,0-1.27,1.15-2.29,3-2.32a4,4,0,0,1,2.73,1m5.5,10.08h4c4.86,0,7.37-2.62,7.37-6.34,0-3.39-2.22-5-4.28-5.14v-.13a4.53,4.53,0,0,0,3.67-4.75c0-3.68-2.65-6.11-6.75-6.09l-6.3,0L15.65,8.49a13.54,13.54,0,0,0-2.25-.16c-5.23.08-8.81,2.85-8.78,7.2,0,4.09,2.83,5.72,6,6.41l4.67.94a4.18,4.18,0,0,1,1.13.36L21,14.39h0l-4.5,8.85L21,14.39l3.76,0a2.36,2.36,0,0,1,2.63,2.4,2.43,2.43,0,0,1-2.74,2.53l-4.18,0-3.12,6.09v0l-.33.65a3.62,3.62,0,0,1-2.88,1.11A4.06,4.06,0,0,1,9.7,23.94L4.05,25.12c.63,4.38,4.77,6.74,9.81,6.66a13.1,13.1,0,0,0,3.93-.62l3.79-7.41Z" transform="translate(-4.05 -1.3)"/></svg>